<svg width="30" height="30" viewBox="0 0 30 30" fill="none" xmlns="http://www.w3.org/2000/svg">
<circle cx="15" cy="15" r="14" stroke="#00D5BE" stroke-width="2"/>
<path d="M7.8 22.4C10.451 22.4 12.6 20.251 12.6 17.6C12.6 14.949 10.451 12.8 7.8 12.8C5.14903 12.8 3 14.949 3 17.6C3 20.251 5.14903 22.4 7.8 22.4Z" stroke="#00D5BE" stroke-width="2" stroke-linecap="round" stroke-linejoin="round"/>
<path d="M22.1999 22.4C24.8509 22.4 26.9999 20.251 26.9999 17.6C26.9999 14.949 24.8509 12.8 22.1999 12.8C19.5489 12.8 17.3999 14.949 17.3999 17.6C17.3999 20.251 19.5489 22.4 22.1999 22.4Z" stroke="#00D5BE" stroke-width="2" stroke-linecap="round" stroke-linejoin="round"/>
<path d="M12.6 17.6L12.8532 17.4728C13.5198 17.1395 14.2548 16.966 15 16.966C15.7452 16.966 16.4802 17.1395 17.1468 17.4728L17.4 17.6M23.4 8L26.8056 15.9476C26.9338 16.2464 26.9999 16.5681 27 16.8932V17.6M6.6 8L3.1944 15.9476C3.06638 16.246 3.00025 16.5673 3 16.892V17.6" stroke="#00D5BE" stroke-width="2" stroke-linecap="round" stroke-linejoin="round"/>
</svg>
